<svg width="16" height="16" viewBox="0 0 16 16" fill="none" xmlns="http://www.w3.org/2000/svg">
<g clip-path="url(#clip0_85_2)">
<path d="M0.293031 0.293081C0.480558 0.10561 0.734866 0.000294724 1.00003 0.000294724C1.26519 0.000294724 1.5195 0.10561 1.70703 0.293081L8.00003 6.58608L14.293 0.293081C14.3853 0.197571 14.4956 0.121389 14.6176 0.0689798C14.7396 0.0165708 14.8709 -0.0110155 15.0036 -0.0121693C15.1364 -0.0133231 15.2681 0.0119786 15.391 0.0622595C15.5139 0.11254 15.6255 0.186793 15.7194 0.280686C15.8133 0.374579 15.8876 0.486231 15.9379 0.609127C15.9881 0.732024 16.0134 0.863703 16.0123 0.996482C16.0111 1.12926 15.9835 1.26048 15.9311 1.38249C15.8787 1.50449 15.8025 1.61483 15.707 1.70708L9.41403 8.00008L15.707 14.2931C15.8892 14.4817 15.99 14.7343 15.9877 14.9965C15.9854 15.2587 15.8803 15.5095 15.6948 15.6949C15.5094 15.8803 15.2586 15.9855 14.9964 15.9878C14.7342 15.99 14.4816 15.8892 14.293 15.7071L8.00003 9.41408L1.70703 15.7071C1.51843 15.8892 1.26583 15.99 1.00363 15.9878C0.741433 15.9855 0.49062 15.8803 0.305212 15.6949C0.119804 15.5095 0.014635 15.2587 0.0123566 14.9965C0.0100781 14.7343 0.110873 14.4817 0.293031 14.2931L6.58603 8.00008L0.293031 1.70708C0.10556 1.51955 0.000244141 1.26525 0.000244141 1.00008C0.000244141 0.734917 0.10556 0.480609 0.293031 0.293081Z" fill="white"/>
</g>
<defs>
<clipPath id="clip0_85_2">
<rect width="16" height="16" fill="white"/>
</clipPath>
</defs>
</svg>
