<svg width="29" height="28" viewBox="0 0 29 28" fill="none" xmlns="http://www.w3.org/2000/svg">
<path d="M14.1093 7.51594V11.4009M14.1326 2.33594C9.83926 2.33594 6.36259 5.8126 6.36259 10.1059V12.5559C6.36259 13.3493 6.03592 14.5393 5.62759 15.2159L4.14592 17.6893C3.23592 19.2176 3.86592 20.9209 5.54592 21.4809C11.1241 23.3359 17.1528 23.3359 22.7309 21.4809C23.099 21.3582 23.4348 21.1542 23.7135 20.8843C23.9922 20.6143 24.2066 20.2851 24.341 19.9211C24.4754 19.5571 24.5263 19.1676 24.4899 18.7813C24.4536 18.395 24.3309 18.0218 24.1309 17.6893L22.6493 15.2159C22.2409 14.5393 21.9143 13.3376 21.9143 12.5559V10.1059C21.9026 5.83594 18.4026 2.33594 14.1326 2.33594Z" stroke="#EF4034" stroke-width="1.5" stroke-miterlimit="10" stroke-linecap="round"/>
<path d="M17.9946 21.9531C17.9946 24.0881 16.2446 25.8381 14.1096 25.8381C13.0479 25.8381 12.0679 25.3948 11.3679 24.6948C10.6679 23.9948 10.2246 23.0148 10.2246 21.9531" stroke="#EF4034" stroke-width="1.5" stroke-miterlimit="10"/>
</svg>
