<svg width="66" height="67" viewBox="0 0 66 67" fill="none" xmlns="http://www.w3.org/2000/svg">
<path d="M33 0.6875C41.7024 0.6875 50.0484 4.14452 56.2019 10.2981C62.3555 16.4516 65.8125 24.7976 65.8125 33.5C65.8125 42.2024 62.3555 50.5484 56.2019 56.7019C50.0484 62.8555 41.7024 66.3125 33 66.3125C24.2976 66.3125 15.9516 62.8555 9.79806 56.7019C3.64452 50.5484 0.1875 42.2024 0.1875 33.5C0.1875 24.7976 3.64452 16.4516 9.79806 10.2981C15.9516 4.14452 24.2976 0.6875 33 0.6875ZM28.9125 39.9734L21.6234 32.6797C21.3621 32.4184 21.0519 32.2111 20.7105 32.0697C20.3691 31.9283 20.0031 31.8555 19.6336 31.8555C19.264 31.8555 18.8981 31.9283 18.5567 32.0697C18.2153 32.2111 17.9051 32.4184 17.6437 32.6797C17.116 33.2074 16.8195 33.9232 16.8195 34.6695C16.8195 35.4159 17.116 36.1316 17.6437 36.6594L26.925 45.9406C27.1856 46.2032 27.4956 46.4117 27.8371 46.5539C28.1786 46.6962 28.5449 46.7694 28.9148 46.7694C29.2848 46.7694 29.6511 46.6962 29.9926 46.5539C30.3341 46.4117 30.6441 46.2032 30.9047 45.9406L50.1234 26.7172C50.3882 26.457 50.5989 26.1469 50.7433 25.8048C50.8876 25.4628 50.9628 25.0955 50.9646 24.7243C50.9663 24.353 50.8945 23.9851 50.7533 23.6417C50.6121 23.2983 50.4044 22.9863 50.142 22.7236C49.8796 22.461 49.5679 22.2528 49.2247 22.1112C48.8814 21.9697 48.5136 21.8974 48.1423 21.8987C47.7711 21.9 47.4037 21.9748 47.0615 22.1187C46.7193 22.2627 46.409 22.473 46.1484 22.7375L28.9125 39.9734Z" fill="#19B04C"/>
</svg>
